<svg height="682pt" viewBox="-135 -21 682 682.66669" width="682pt" xmlns="http://www.w3.org/2000/svg"><path d="m165.222656 10.695312c0-5.898437-4.796875-10.695312-10.703125-10.695312h-62.394531c-5.914062 0-10.691406 4.796875-10.691406 10.695312v67.746094h83.789062zm0 0"/><path d="m234.238281 219.996094-55.011719-21.886719c-8.457031-3.375-14.003906-11.542969-14.003906-20.652344v-61.367187h-83.789062v60.976562c0 9.300782-5.796875 17.605469-14.519532 20.832032l-60.261718 22.296874c-8.585938 3.179688-14.179688 11.484376-13.890625 20.644532l12.132812 393.074218c.101563 3.386719 2.890625 6.085938 6.273438 6.085938h218.066406c3.390625 0 6.171875-2.699219 6.273437-6.085938l12.148438-393.460937c.273438-8.972656-5.082031-17.140625-13.417969-20.457031zm-67.785156 342.5h-92.5c-10.390625 0-18.824219-8.417969-18.824219-18.824219 0-10.390625 8.433594-18.824219 18.824219-18.824219h92.5c10.390625 0 18.820313 8.433594 18.820313 18.824219 0 10.40625-8.429688 18.824219-18.820313 18.824219zm-46.257813-90.878906c-51.074218 0-92.625-41.546876-92.625-92.636719 0-51.074219 41.550782-92.621094 92.625-92.621094 51.089844 0 92.636719 41.546875 92.636719 92.621094 0 51.089843-41.546875 92.636719-92.636719 92.636719zm0 0"/><path d="m120.195312 324.003906c-30.316406 0-54.972656 24.660156-54.972656 54.976563 0 30.316406 24.65625 54.988281 54.972656 54.988281 30.320313 0 54.992188-24.671875 54.992188-54.988281 0-30.316407-24.671875-54.976563-54.992188-54.976563zm13.101563 73.800782h-26.191406c-10.398438 0-18.824219-8.421876-18.824219-18.824219 0-10.390625 8.425781-18.824219 18.824219-18.824219h26.191406c10.390625 0 18.824219 8.433594 18.824219 18.824219 0 10.402343-8.433594 18.824219-18.824219 18.824219zm0 0"/><path d="m398.964844 505.875h-102.507813c-3.804687 0-6.734375 3.351562-6.222656 7.125l3.390625 24.890625h108.171875l3.386719-24.890625c.511718-3.773438-2.417969-7.125-6.21875-7.125zm0 0"/><path d="m306.777344 634.570312c.421875 3.109376 3.078125 5.429688 6.21875 5.429688h69.425781c3.140625 0 5.796875-2.320312 6.222656-5.429688l8.03125-59.03125h-97.933593zm0 0"/></svg>