<?xml version="1.0" encoding="iso-8859-1"?>
<!-- Generator: Adobe Illustrator 19.0.0, SVG Export Plug-In . SVG Version: 6.00 Build 0)  -->
<svg version="1.1" id="Capa_1" xmlns="http://www.w3.org/2000/svg" xmlns:xlink="http://www.w3.org/1999/xlink" x="0px" y="0px"
	 viewBox="0 0 512 512" style="enable-background:new 0 0 512 512;" xml:space="preserve">
<g>
	<g>
		<path d="M354.125,30c8.28,0,15-6.72,15-15s-6.72-15-15-15h-40.46c-7.28,0-13.51,5.23-14.77,12.41L292.131,51H157.875
			c-4.19,0-8.19,1.753-11.03,4.834c-2.84,3.081-4.261,7.211-3.92,11.388c0.797,9.747,27.621,337.982,28.83,352.778h163.22
			l20.549-251.539c0-0.003,0.001-0.007,0.001-0.01l8.27-101.23c0.341-4.176-1.08-8.306-3.92-11.387
			c-2.84-3.082-6.84-4.834-11.03-4.834h-26.26l3.681-21H354.125z M219.855,154c-0.001,0-0.002,0-0.003,0
			c-11.448-0.001-17.673-5.328-23.873-10.509c-6.42-5.366-11.343-9.191-17.715-12.162L174.151,81h112.721l-7.967,45.447
			c-16.203,1.878-25.112,8.646-35.158,17.042C237.23,148.935,230.741,154,219.855,154z M298.295,189.59
			c-1.456,8.283-9.393,13.63-17.37,12.18c-8.16-1.43-13.61-9.2-12.18-17.36l4.443-25.346c3.695-1.945,7.846-3.064,13.677-3.064
			c7.344,0,12.028,1.771,16.485,4.741L298.295,189.59z M332.569,81l-4.944,60.523c-5.953-4.897-11.502-8.83-18.86-11.683L317.326,81
			H332.569z"/>
	</g>
</g>
<g>
	<g>
		<path d="M353.064,492.374L339.326,450H167.394l-13.738,42.374c-1.48,4.566-0.687,9.564,2.136,13.447
			c2.823,3.882,7.333,6.179,12.133,6.179h170.87c4.8,0,9.31-2.297,12.133-6.179C353.75,501.939,354.544,496.94,353.064,492.374z"/>
	</g>
</g>
<g>
</g>
<g>
</g>
<g>
</g>
<g>
</g>
<g>
</g>
<g>
</g>
<g>
</g>
<g>
</g>
<g>
</g>
<g>
</g>
<g>
</g>
<g>
</g>
<g>
</g>
<g>
</g>
<g>
</g>
</svg>
