<svg height="512pt" viewBox="0 -18 512.00053 512" width="512pt" xmlns="http://www.w3.org/2000/svg"><path d="m271.070312 46.585938-.039062-.371094c-3.164062-26.347656-25.5625-46.214844-52.105469-46.214844h-147.554687c-26.542969 0-48.941406 19.867188-52.101563 46.214844l-5.855469 61.660156h263.46875zm0 0"/><path d="m235.664062 409.585938c-12.367187-4.320313-29.230468-7.613282-48.773437-9.511719-2.996094-.292969-5.34375-2.925781-5.34375-5.992188 0-2.746093 1.851563-5.097656 4.609375-5.855469 27.582031-7.582031 52.105469-22.804687 70.921875-44.023437.769531-.863281 1.523437-1.738281 2.269531-2.621094 22.6875-26.859375 33.75-62.855469 30.339844-98.75l-9.960938-105.007812h-269.152343l-9.96875 105.007812c-3.40625 35.898438 7.65625 71.890625 30.34375 98.75.746093.882813 1.5 1.757813 2.269531 2.625 18.816406 21.214844 43.339844 36.4375 70.921875 44.019531 2.757813.757813 4.609375 3.109376 4.609375 5.855469 0 3.066407-2.347656 5.699219-5.34375 5.992188-19.542969 1.898437-36.40625 5.191406-48.773438 9.511719-18.351562 6.417968-27.65625 15.773437-27.65625 27.808593 0 19.597657 24.160157 27.480469 42.335938 31.703125 20.753906 4.824219 47.6875 7.480469 75.835938 7.480469 28.148437 0 55.078124-2.65625 75.832031-7.480469 18.175781-4.222656 42.335937-12.105468 42.335937-31.703125.003906-12.035156-9.300781-21.390625-27.652344-27.808593zm0 0"/><path d="m421.589844 330.246094-80.175782-80.175782c-5.847656-5.851562-15.328124-5.851562-21.179687 0-25.675781 25.675782-38.585937 59.363282-38.738281 93.09375l117.992187-10.878906zm0 0"/><path d="m320.234375 437.449219c13.546875 13.542969 29.324219 23.53125 46.15625 29.972656l25.558594-104.367187-107.226563 9.886718c5.304688 23.65625 17.136719 46.132813 35.511719 64.507813zm0 0"/><path d="m507.613281 416.269531-78.605469-78.609375-5.507812 22.492188-28.105469 114.746094c6.144531.859374 12.335938 1.292968 18.53125 1.292968 33.925781 0 67.859375-12.914062 93.6875-38.742187 5.851563-5.851563 5.851563-15.332031 0-21.179688zm0 0"/></svg>