<svg height="512pt" viewBox="0 0 512 512" width="512pt" xmlns="http://www.w3.org/2000/svg"><path d="m240.964844 374.757812c-18.597656-6.285156-32.027344-23.890624-32.027344-44.582031 0-20.691406 13.429688-38.296875 32.027344-44.585937v-192.832032c-27.027344 2.472657-52.179688 11.519532-73.832032 25.542969v275.398438c21.652344 14.023437 46.804688 23.074219 73.832032 25.542969zm0 0"/><path d="m342.972656 117.097656c-21.222656-13.332031-45.695312-21.941406-71.9375-24.339844v192.835938c18.597656 6.285156 32.027344 23.890625 32.027344 44.582031 0 20.691407-13.429688 38.296875-32.027344 44.585938v44.480469c26.242188-2.398438 50.714844-11.003907 71.9375-24.339844zm0 0"/><path d="m256 313.183594c-9.371094 0-16.992188 7.621094-16.992188 16.992187 0 9.367188 7.621094 16.992188 16.992188 16.992188s16.992188-7.625 16.992188-16.992188c0-9.371093-7.621094-16.992187-16.992188-16.992187zm0 0"/><path d="m137.066406 143.289062c-27.878906 29.402344-45.003906 69.09375-45.003906 112.710938s17.125 83.308594 45.003906 112.710938zm0 0"/><path d="m373.042969 141.335938v229.328124c28.988281-29.585937 46.894531-70.070312 46.894531-114.664062s-17.90625-85.078125-46.894531-114.664062zm0 0"/><path d="m437.019531 74.980469c-48.351562-48.351563-112.640625-74.980469-181.019531-74.980469s-132.667969 26.628906-181.019531 74.980469c-48.351563 48.351562-74.980469 112.640625-74.980469 181.019531s26.628906 132.667969 74.980469 181.019531c48.351562 48.351563 112.640625 74.980469 181.019531 74.980469s132.667969-26.628906 181.019531-74.980469c48.351563-48.351562 74.980469-112.640625 74.980469-181.019531s-26.628906-132.667969-74.980469-181.019531zm-181.019531 375.023437c-106.976562 0-194.003906-87.027344-194.003906-194.003906 0-64.46875 31.613281-121.683594 80.148437-156.980469.789063-.699219 1.652344-1.324219 2.578125-1.847656 31.523438-22.152344 69.90625-35.175781 111.277344-35.175781 106.976562 0 194.007812 87.027344 194.007812 194.003906s-87.03125 194.003906-194.007812 194.003906zm0 0"/></svg>