<svg id="Capa_1" enable-background="new 0 0 512 512" height="512" viewBox="0 0 512 512" width="512" xmlns="http://www.w3.org/2000/svg"><g><path d="m151 332h210v70h-210z"/><path d="m151 467c0 24.813 20.187 45 45 45h120c24.813 0 45-20.187 45-45v-35h-210z"/><path d="m306 15c0-8.284-6.716-15-15-15h-70c-8.284 0-15 6.716-15 15v45h100z"/><path d="m328.59 190.901c-14.357-13.051-22.59-31.665-22.59-51.066v-49.835h-100v49.835c0 19.401-8.234 38.015-22.59 51.066-20.597 18.725-32.41 45.429-32.41 73.264v37.835h210v-37.835c0-27.835-11.812-54.539-32.41-73.264z"/><path d="m306 90h10c8.284 0 15-6.716 15-15s-6.716-15-15-15h-10z"/><path d="m206 60h-10c-8.284 0-15 6.716-15 15s6.716 15 15 15h10z"/><path d="m466 127c0-8.284-6.716-15-15-15h-60c-8.284 0-15 6.716-15 15v35h90z"/><path d="m466 192h5c8.284 0 15-6.716 15-15s-6.716-15-15-15h-5z"/><path d="m376 162h-5c-8.284 0-15 6.716-15 15s6.716 15 15 15h5z"/><path d="m136 127c0-8.284-6.716-15-15-15h-60c-8.284 0-15 6.716-15 15v35h90z"/><path d="m156 177c0-8.284-6.716-15-15-15h-5v30h5c8.284 0 15-6.716 15-15z"/><path d="m46 162h-5c-8.284 0-15 6.716-15 15s6.716 15 15 15h5z"/><path d="m391 372h120v40h-120z"/><path d="m391 467c0 16.871-5.603 32.455-15.04 44.999.013 0 .027.001.04.001h90c24.813 0 45-20.187 45-45v-25h-120z"/><path d="m1 372h120v40h-120z"/><path d="m121 442h-120v25c0 24.813 20.187 45 45 45h90c.013 0 .027-.001.04-.001-9.437-12.544-15.04-28.128-15.04-44.999z"/><path d="m483.466 265.789c-11.1-9.866-17.466-24.042-17.466-38.893v-34.896h-90v11.855c9.732 18.412 15 39.107 15 60.31v77.835h120v-14.896c0-23.412-10.036-45.76-27.534-61.315z"/><path d="m46 226.896c0 14.851-6.366 29.026-17.466 38.893-17.498 15.555-27.534 37.903-27.534 61.315v14.896h120v-77.835c0-21.203 5.268-41.897 15-60.31v-11.855h-90z"/></g></svg>