<?xml version="1.0" encoding="iso-8859-1"?>
<!-- Generator: Adobe Illustrator 19.0.0, SVG Export Plug-In . SVG Version: 6.00 Build 0)  -->
<svg version="1.1" id="Capa_1" xmlns="http://www.w3.org/2000/svg" xmlns:xlink="http://www.w3.org/1999/xlink" x="0px" y="0px"
	 viewBox="0 0 512 512" style="enable-background:new 0 0 512 512;" xml:space="preserve">
<g>
	<g>
		<path d="M180.7,12.001C179.2,5.099,173.2,0,166,0H76c-8.401,0-15,6.599-15,15s6.599,15,15,15h77.701L165.7,90h30.6L180.7,12.001z"
			/>
	</g>
</g>
<g>
	<g>
		<path d="M420.238,30.762C380.6-8.906,311.4-8.906,271.762,30.762c-8.597,8.591-15.167,18.583-20.253,29.238H331
			c13.403,0,26.001,5.903,34.57,16.201c8.569,10.225,12.114,23.701,9.683,36.899l-17.424,95.838
			c23.247-2.565,45.086-12.363,62.41-29.7C440.072,159.419,451,133.052,451,105S440.072,50.581,420.238,30.762z"/>
	</g>
</g>
<g>
	<g>
		<path d="M342.4,95.4c-2.701-3.3-6.899-5.4-11.4-5.4H196.3l21.502,107.763C227.43,186.714,241.115,180,256,180
			c17.109,0,32.988,8.496,42.48,22.734c6.379,9.58,19.755,11.085,28.982,5.272L345.7,107.701C346.601,103.2,345.4,98.7,342.4,95.4z
			 M277.022,150.315l-0.22-0.315h0.277L277.022,150.315z"/>
	</g>
</g>
<g>
	<g>
		<path d="M314.418,490.291L295.272,452H126.728l-19.146,38.291c-2.329,4.644-2.08,10.166,0.659,14.59
			C110.98,509.305,115.8,512,121,512h180c5.2,0,10.02-2.695,12.759-7.119S316.747,494.935,314.418,490.291z"/>
	</g>
</g>
<g>
	<g>
		<path d="M316,240c-17.109,0-32.988-6.387-42.48-20.625c-7.939-11.924-27.1-11.924-35.039,0C228.988,233.613,213.109,240,196,240
			s-32.988-6.387-42.48-20.625c-7.939-11.924-27.1-11.924-35.039,0c-4.871,7.306-11.455,12.48-18.994,15.85L133.083,422h155.834
			l32.831-182.56C319.825,239.61,317.963,240,316,240z M196,360c-8.284,0-15-6.716-15-15c0-8.286,6.716-15,15-15s15,6.714,15,15
			C211,353.284,204.284,360,196,360z M226,300c-8.284,0-15-6.716-15-15c0-8.286,6.716-15,15-15s15,6.714,15,15
			C241,293.284,234.284,300,226,300z"/>
	</g>
</g>
<g>
	<g>
		<path d="M165.7,90H91c-4.501,0-8.699,2.1-11.4,5.4c-2.999,3.3-4.2,7.8-3.3,12.301l17.269,94.977
			C103.065,188.48,118.916,180,136,180c17.109,0,32.988,8.496,42.48,22.734c2.693,4.047,6.812,6.205,11.213,7.505L165.7,90z"/>
	</g>
</g>
<g>
</g>
<g>
</g>
<g>
</g>
<g>
</g>
<g>
</g>
<g>
</g>
<g>
</g>
<g>
</g>
<g>
</g>
<g>
</g>
<g>
</g>
<g>
</g>
<g>
</g>
<g>
</g>
<g>
</g>
</svg>
