<svg height="512pt" viewBox="-57 0 511 512" width="512pt" xmlns="http://www.w3.org/2000/svg"><path d="m368.648438 77.621094v-30.121094h-30v30.121094c-17.035157 6.160156-29.25 22.492187-29.25 41.628906v55.75h28.585937v2.566406c0 12.921875-10.511719 23.433594-23.433594 23.433594h-56.089843c-7.554688-13.800781-20.539063-24.214844-36.0625-28.363281v-77.636719h56v-30h-22.414063l11-65h-119.167969l11 65h-18.417968v30h52v77.636719c-15.519532 4.148437-28.507813 14.5625-36.058594 28.363281h-40.980469c-63.332031 0-114.859375 51.527344-114.859375 114.859375v7.320313c0 58.582031 44.085938 107.054687 100.820312 114 3.832032 28.414062 19.054688 54.578124 42.355469 71.867187l3.980469 2.953125h119.488281l3.976563-2.953125c27.125-20.125 43.316406-52.277344 43.316406-86.007813 0-30.222656-12.59375-57.558593-32.804688-77.039062h-148.464843c-16.546875 15.945312-27.984375 37.152344-31.59375 60.902344-40.253907-6.605469-71.074219-41.625-71.074219-83.722656v-7.320313c0-46.792969 38.066406-84.859375 84.859375-84.859375h33.929687c.347657 9.402344 2.929688 18.242188 7.242188 26h-49.632812v59h201v-59h-49.628907c4.3125-7.757812 6.894531-16.597656 7.242188-26h49.039062c29.460938 0 53.433594-23.972656 53.433594-53.433594v-2.566406h29.914063v-55.75c0-19.136719-12.210938-35.46875-29.25-41.628906zm0 0"/></svg>