<?xml version="1.0" encoding="iso-8859-1"?>
<!-- Generator: Adobe Illustrator 19.0.0, SVG Export Plug-In . SVG Version: 6.00 Build 0)  -->
<svg version="1.1" id="Capa_1" xmlns="http://www.w3.org/2000/svg" xmlns:xlink="http://www.w3.org/1999/xlink" x="0px" y="0px"
	 viewBox="0 0 511.999 511.999" style="enable-background:new 0 0 511.999 511.999;" xml:space="preserve">
<g>
	<g>
		<path d="M456.73,4.519C453.907,1.63,450.038,0,445.999,0h-380c-4.039,0-7.908,1.629-10.73,4.519
			c-2.822,2.89-4.36,6.795-4.266,10.833c0.275,11.693,5.709,223.787,39.257,373.92h331.479
			c33.547-150.133,38.981-362.227,39.257-373.92C461.091,11.314,459.553,7.408,456.73,4.519z"/>
	</g>
</g>
<g>
	<g>
		<path d="M97.584,419.272c9.32,34.867,20.47,64.801,33.805,85.775c2.753,4.33,7.527,6.952,12.658,6.952h223.902
			c5.131,0,9.905-2.623,12.658-6.952c13.335-20.975,24.486-50.909,33.805-85.775H97.584z"/>
	</g>
</g>
<g>
</g>
<g>
</g>
<g>
</g>
<g>
</g>
<g>
</g>
<g>
</g>
<g>
</g>
<g>
</g>
<g>
</g>
<g>
</g>
<g>
</g>
<g>
</g>
<g>
</g>
<g>
</g>
<g>
</g>
</svg>
