<svg id="Capa_1" enable-background="new 0 0 512 512" height="512" viewBox="0 0 512 512" width="512" xmlns="http://www.w3.org/2000/svg"><path d="m460.132 374.705c-2.849-3.285-6.984-5.172-11.332-5.172h-112.467c-4.348 0-8.483 1.887-11.332 5.172s-4.132 7.645-3.517 11.949l16.066 112.467c1.056 7.39 7.384 12.879 14.849 12.879h80.333c7.465 0 13.793-5.489 14.849-12.879l16.066-112.467c.617-4.304-.667-8.664-3.515-11.949z"/><path d="m222.8 130.331v-36.064h-126.4v36.062c-27.631 6.745-48.2 31.71-48.2 61.389v17.149h222.8v-17.149c0-29.676-20.565-54.638-48.2-61.387z"/><path d="m222.8 15c0-8.284-6.716-15-15-15h-96.4c-8.284 0-15 6.716-15 15v49.267h126.4z"/><path d="m48.2 497c0 8.284 6.716 15 15 15h192.8c8.284 0 15-6.716 15-15v-81.4h-222.8z"/><path d="m48.2 238.867h222.8v146.733h-222.8z"/></svg>